<svg id="Layer_1" data-name="Layer 1" xmlns="http://www.w3.org/2000/svg" viewBox="0 0 588.49 644.2"><defs><style>.cls-1{fill:none;stroke:#56eef4;stroke-miterlimit:10;stroke-width:10px;}.cls-2{fill:#56eef4;}</style></defs><polygon class="cls-1" points="6.6 179.66 222.6 5 366.31 5 581.89 179.66 294.25 634.84 6.6 179.66"/><path class="cls-2" d="M852,479l-4-4V419a12.85,12.85,0,0,1,10-10l6,16v42Zm12,16v42l-6,16a12.85,12.85,0,0,1-10-10V487l4-4Zm4,42h48l16,6a12.85,12.85,0,0,1-10,10H862Z" transform="translate(-665.75 -220.08)"/><path class="cls-2" d="M968,553H952V537h16Z" transform="translate(-665.75 -220.08)"/><path class="cls-2" d="M1052,425h-48l-16-6V409h64l8,8Zm-48,4v38l-12,12-4-4V423ZM988,539V487l4-4,12,12v38Zm71.8,6-8,8H988V543l16-6h47.8Zm-3.8-72,8,8-8,8h-52l-8-8,8-8Zm0-6V425l6-6,10,10v46l-4,4Zm12,16,4,4v46l-10,10-6-6V495Z" transform="translate(-665.75 -220.08)"/></svg>